<?xml version="1.0" encoding="UTF-8"?>
<svg width="100px" height="89px" viewBox="0 0 100 89" version="1.1" xmlns="http://www.w3.org/2000/svg" xmlns:xlink="http://www.w3.org/1999/xlink">
    <title>Group Copy 5</title>
    <g id="Page-1" stroke="none" stroke-width="1" fill="none" fill-rule="evenodd">
        <g id="Group-Copy-4" stroke="#000000">
            <rect id="Rectangle-Copy-2" stroke-width="2" x="1" y="1" width="98" height="87"></rect>
            <line x1="75.05" y1="79.9054054" x2="75.05" y2="1" id="Path-3-Copy-16" opacity="0.300000012"></line>
            <line x1="50.05" y1="79.9054054" x2="50.05" y2="1" id="Path-3-Copy-17" opacity="0.300000012"></line>
            <line x1="26.05" y1="79.9054054" x2="26.05" y2="1" id="Path-3-Copy-18" opacity="0.300000012"></line>
            <line x1="38.5" y1="79.5" x2="38.5" y2="0.5" id="Path-3-Copy-19" opacity="0.300000012"></line>
            <line x1="62.5" y1="79.5" x2="62.5" y2="0.5" id="Path-3-Copy-31" opacity="0.300000012"></line>
            <line x1="86.5" y1="79.5" x2="86.5" y2="0.5" id="Path-3-Copy-32" opacity="0.300000012"></line>
            <line x1="14.5" y1="79.5" x2="14.5" y2="0.5" id="Path-3-Copy-33" opacity="0.300000012"></line>
            <line x1="0" y1="22.05" x2="100" y2="22.05" id="Path-3-Copy-20" opacity="0.300000012"></line>
            <line x1="0" y1="32.05" x2="100" y2="32.05" id="Path-3-Copy-21" opacity="0.300000012"></line>
            <line x1="0" y1="37.05" x2="100" y2="37.05" id="Path-3-Copy-22" opacity="0.300000012"></line>
            <line x1="0" y1="42.05" x2="100" y2="42.05" id="Path-3-Copy-23" opacity="0.300000012"></line>
            <line x1="0" y1="46.05" x2="100" y2="46.05" id="Path-3-Copy-24" opacity="0.300000012"></line>
            <line x1="1.5" y1="56.5" x2="98.5" y2="56.5" id="Path-3-Copy-25" opacity="0.300000012"></line>
            <line x1="0" y1="51.05" x2="100" y2="51.05" id="Path-3-Copy-26" opacity="0.300000012"></line>
            <line x1="0" y1="61.05" x2="100" y2="61.05" id="Path-3-Copy-27" opacity="0.300000012"></line>
            <line x1="0" y1="71.05" x2="100" y2="71.05" id="Path-3-Copy-28" opacity="0.300000012"></line>
            <line x1="0" y1="80.05" x2="100" y2="80.05" id="Path-3-Copy-29" opacity="0.300000012"></line>
        </g>
    </g>
</svg>